<?xml version="1.0" standalone="no"?>
<!DOCTYPE svg PUBLIC "-//W3C//DTD SVG 20010904//EN"
 "http://www.w3.org/TR/2001/REC-SVG-20010904/DTD/svg10.dtd">
<svg version="1.0" xmlns="http://www.w3.org/2000/svg"
 width="522.000000pt" height="522.000000pt" viewBox="0 0 522.000000 522.000000"
 preserveAspectRatio="xMidYMid meet">
<metadata>
Created by potrace 1.14, written by Peter Selinger 2001-2017
</metadata>
<g transform="translate(0.000000,522.000000) scale(0.100000,-0.100000)"
fill="#000000" stroke="none">
<path d="M3890 3178 c1 -18 2 -45 1 -60 l-1 -28 -91 0 c-125 0 -126 -1 -127
-104 -1 -47 2 -87 7 -90 4 -3 53 -6 109 -7 l102 -3 0 -30 c1 -17 2 -175 4
-351 3 -347 4 -355 62 -424 49 -59 88 -71 229 -71 l126 0 -3 96 -3 96 -61 1
c-72 2 -100 21 -110 73 -3 18 -8 180 -10 361 -2 180 -5 366 -8 413 -3 47 -5
102 -5 123 l-1 37 -111 0 -111 0 2 -32z"/>
<path d="M4463 3203 c2 -5 11 -24 20 -43 8 -19 33 -73 55 -120 53 -115 52
-111 31 -150 -10 -19 -30 -61 -44 -92 -14 -32 -36 -83 -50 -113 l-25 -55 68 0
69 0 49 103 c26 56 49 104 50 107 0 3 10 25 21 48 l21 44 -34 69 c-19 38 -34
71 -34 74 0 2 -14 33 -30 69 l-31 66 -70 0 c-39 0 -68 -3 -66 -7z"/>
<path d="M4710 3206 c0 -4 45 -104 91 -203 16 -34 29 -67 29 -72 0 -5 -18 -49
-41 -98 -51 -110 -89 -194 -89 -199 0 -2 30 -4 68 -4 l67 0 17 38 c9 20 40 88
68 150 l52 114 -63 139 -63 139 -68 0 c-37 0 -68 -2 -68 -4z"/>
<path d="M4976 3153 c14 -32 44 -98 65 -147 l40 -89 -20 -46 c-11 -25 -40 -90
-66 -145 -25 -54 -44 -100 -42 -102 4 -4 76 -7 112 -5 15 1 29 18 49 64 16 34
47 100 68 146 l40 85 -35 80 c-20 45 -50 111 -67 149 l-32 67 -69 0 -69 0 26
-57z"/>
<path d="M2132 3183 c-84 -25 -164 -108 -190 -197 -3 -11 -7 -236 -8 -498 l-3
-478 124 0 c89 0 124 3 127 13 2 6 4 144 4 304 -1 213 2 294 10 297 7 3 128 5
269 5 313 0 325 -3 341 -104 l5 -36 -88 4 c-195 10 -320 -38 -365 -141 -20
-43 -26 -118 -14 -169 14 -61 64 -120 130 -152 43 -21 55 -22 278 -19 182 2
239 6 262 18 l30 15 0 253 c1 216 -2 264 -17 323 -31 111 -113 187 -227 207
-19 4 -163 6 -320 6 -181 -1 -287 3 -292 9 -8 14 -1 67 13 94 16 31 63 47 125
44 53 -2 54 -2 55 26 3 84 0 175 -6 181 -14 14 -190 10 -243 -5z m656 -851
c21 -2 22 -7 22 -72 0 -78 9 -72 -97 -75 -101 -3 -146 32 -129 99 11 44 70 58
204 48z"/>
<path d="M4190 3080 c-18 -18 -18 -20 -6 -134 5 -47 17 -56 77 -56 64 0 73 13
65 100 -8 85 -13 100 -35 101 -9 1 -31 2 -50 4 -21 1 -40 -4 -51 -15z"/>
<path d="M13 2973 c-10 -4 -13 -110 -13 -484 l0 -479 658 0 659 0 47 93 c69
133 106 201 115 209 4 5 19 -16 34 -45 15 -28 51 -97 81 -152 l54 -100 121 -3
c80 -2 121 1 121 8 0 10 -33 67 -204 358 l-66 113 92 167 c122 224 127 232
149 269 19 30 19 32 2 41 -18 10 -218 11 -226 2 -7 -8 -127 -261 -127 -268 0
-3 -7 -14 -16 -24 -16 -17 -21 -9 -91 135 -41 83 -77 154 -80 157 -7 8 -760 8
-772 1 -7 -5 -12 -133 -13 -387 l-3 -379 -155 0 -155 0 -3 383 c-1 210 -6 383
-10 383 -20 5 -189 6 -199 2z m1247 -329 c41 -75 76 -141 78 -148 1 -7 -29
-65 -68 -130 -38 -64 -70 -120 -70 -123 0 -4 -7 -15 -17 -25 -15 -16 -35 -18
-220 -18 l-203 0 0 98 0 99 90 0 c50 0 93 3 97 6 5 5 8 118 4 170 -1 15 -13
17 -96 17 l-95 0 0 95 0 95 213 0 212 0 75 -136z"/>
<path d="M3398 2835 c-2 -2 -21 -5 -43 -8 -135 -19 -225 -107 -230 -225 -1
-31 3 -73 8 -92 24 -90 121 -157 275 -189 112 -24 121 -28 128 -58 22 -85
-167 -96 -302 -18 -22 13 -45 21 -50 17 -6 -4 -30 -40 -54 -81 l-43 -74 24
-20 c13 -11 52 -33 86 -48 61 -28 67 -29 233 -29 189 0 220 7 278 63 51 48 65
83 68 168 4 93 -19 147 -82 194 -39 30 -146 70 -209 79 -56 8 -90 17 -108 31
-26 19 -19 66 13 83 37 19 156 8 215 -20 l47 -23 22 28 c35 44 76 125 71 139
-7 19 -111 62 -179 74 -34 6 -164 13 -168 9z"/>
</g>
</svg>
